# xmcd
# Track frame offsets:
# 150
# 16699
# 35491
# 53121
# 71465
# 87716
# 104151
# 121044
# 138342
# 155050
# 176332
# 192438
# 209164
# 225290
# 241703
#
# Disc length: 3421 seconds
# Revision: 0
# Processed by: cddbd v1.5.2PL0 Copyright (c) Steve Scherf et al.
# Submitted via: VisiTrax 2.11.3.279 - For more info visit www.synapsa.com
#
DISCID=ca0d5b0f
DTITLE=Various Artist - MIXED COUNTRY VOLUME 6  DISK #
DYEAR=2010
DGENRE=Country
TTITLE0=LEANN RIMES - PROBABLY WOUNDN'T BE THIS WAY
TTITLE1=LITTLE BIG TOWN - BOONDOCKS
TTITLE2=LONESTAR - LET'S BE US AGAIN
TTITLE3=MIRANDA LAMBERT - BRING ME DOWN
TTITLE4=MONTGOMERY GENTRY - YOU DO YOUR THING
TTITLE5=NEAL MCCOY - BILLY'S GOT HIS BEER GOGGLES ON
TTITLE6=PAT GREEN - BABY DOLL
TTITLE7=RASCAL FLATTS - BLESS THE BROKEN ROAD
TTITLE8=RYAN SHUPE and THE BUBBER BAND - DREAM BIG
TTITLE9=TIM MCGRAW - DRUGS OR JESUS
TTITLE10=TIM MCGRAW - MY OLD FRIEND
TTITLE11=TIM MCGRAW - DO YOU WANT MY FRIES LIKE THAT ?
TTITLE12=TOBY KEITH - HONCKY TONK U
TTITLE13=TOBY KEITH - STAYS IN MEXICO
TTITLE14=TRACE ADKINS - ROUGH and READY
EXTD=
EXTT0=
EXTT1=
EXTT2=
EXTT3=
EXTT4=
EXTT5=
EXTT6=
EXTT7=
EXTT8=
EXTT9=
EXTT10=
EXTT11=
EXTT12=
EXTT13=
EXTT14=
PLAYORDER=
